PathFileType	4	(X/Y/Z)	./resultDataOpenSim/trcMotMarkerGrf/sub06/qtm-04-02.trc
DataRate	CameraRate	NumFrames	NumMarkers	Units	OrigDataRate	OrigDataStartFrame	OrigNumFrames
250.000000	250.000000	10	24	m	250.000000	474	541
Frame#	Time	L.Toe.Tip			R.Toe.Tip			L.Ankle.Lat			R.Ankle.Lat			L.Ankle.Med			R.Ankle.Med			L.Heel			R.Heel			L.Knee.Lat			R.Knee.Lat			L.Knee.Med			R.Knee.Med			L.Thigh.Upper			R.Thigh.Upper			L.ASIS			R.ASIS			V.Sacral			L.Acromium			R.Acromium			C7			L.Elbow			R.Elbow			L.Wrist.Lat			R.Wrist.Lat
		X1	Y1	Z1	X2	Y2	Z2	X3	Y3	Z3	X4	Y4	Z4	X5	Y5	Z5	X6	Y6	Z6	X7	Y7	Z7	X8	Y8	Z8	X9	Y9	Z9	X10	Y10	Z10	X11	Y11	Z11	X12	Y12	Z12	X13	Y13	Z13	X14	Y14	Z14	X15	Y15	Z15	X16	Y16	Z16	X17	Y17	Z17	X18	Y18	Z18	X19	Y19	Z19	X20	Y20	Z20	X21	Y21	Z21	X22	Y22	Z22	X23	Y23	Z23	X24	Y24	Z24

474	1.892	1.7183173	0.034632183	-0.060475165	1.3443155	0.089589985	0.12018902	1.591862	0.067538105	-0.080653366	1.30539	0.21863662	0.15040802	1.5950407	0.080676117	0.0058653082	1.3405165	0.21983898	0.06991074	1.5174585	0.039684963	-0.036623923	1.2634354	0.25712091	0.087727423	1.655024	0.43913207	-0.089825549	1.615934	0.42874577	0.19365214	1.6255781	0.43370463	0.027824883	1.6180657	0.41051247	0.058905581	1.5602163	0.82429563	-0.15038128	1.5204396	0.77867456	0.18721528	1.6229343	0.86405628	-0.094719289	1.597429	0.84605852	0.15119905	1.4210212	0.92703597	0.020859673	1.542756	1.3326283	-0.17004476	1.5390835	1.3355914	0.19512817	1.4574147	1.3680945	0.009199642	1.4788663	1.0205899	-0.2193257	1.4789846	1.0162021	0.25552448	1.6056737	0.8137268	-0.25981934	1.6650002	0.85308919	0.25441216
475	1.896	1.7183288	0.03463326	-0.060464767	1.3617315	0.089124802	0.12046836	1.5918499	0.067609271	-0.080612872	1.3193801	0.21712832	0.14959251	1.5932153	0.080511441	0.0061684532	1.3547247	0.21866045	0.069021792	1.5174569	0.039776539	-0.036547291	1.2767971	0.25430404	0.086478359	1.6562063	0.4389739	-0.089591077	1.626789	0.43197771	0.19350779	1.6266868	0.43361028	0.028044412	1.6298157	0.41389096	0.058734603	1.5650299	0.82496976	-0.15054664	1.525661	0.78078138	0.1876118	1.6279836	0.86507545	-0.095078078	1.6029945	0.84786214	0.15087287	1.4260211	0.92832866	0.020675416	1.5487551	1.3342588	-0.1701668	1.5441284	1.3370572	0.19492717	1.463004	1.3694429	0.0088486091	1.4867797	1.021629	-0.2201457	1.4815998	1.0180726	0.25466521	1.6167406	0.81588344	-0.25890835	1.6661252	0.85275776	0.25525779
476	1.9	1.7183422	0.034627852	-0.060458335	1.3792899	0.088565903	0.12079305	1.5918415	0.067675801	-0.080571157	1.3334313	0.21542753	0.14878447	1.5910459	0.080307149	0.0065330186	1.3690742	0.21728565	0.068257191	1.5174673	0.039856777	-0.036481556	1.290244	0.25123465	0.085243928	1.6573549	0.43880566	-0.089359196	1.6375294	0.43519132	0.19335972	1.6276899	0.43351809	0.028277415	1.6417242	0.41742636	0.058508068	1.5698576	0.82564531	-0.15070948	1.5308617	0.78288378	0.18804843	1.6330383	0.86607811	-0.095442146	1.6086	0.84966615	0.15051895	1.4309737	0.92959485	0.02052304	1.5547149	1.3358158	-0.17026231	1.5491663	1.3384599	0.19472109	1.4685784	1.3707353	0.0085018019	1.4946995	1.0226458	-0.22096449	1.4843077	1.019856	0.25379709	1.6278452	0.81804719	-0.25796078	1.6672593	0.85246881	0.25610671
477	1.904	1.7183506	0.034616166	-0.060453818	1.3969266	0.087906893	0.1211555	1.5918363	0.067735231	-0.080520413	1.3475547	0.21352593	0.14799814	1.5896254	0.080204137	0.0068124286	1.3835333	0.21572814	0.067574315	1.5174821	0.039928303	-0.036409265	1.3037665	0.24792366	0.084032244	1.6584666	0.43863293	-0.089130362	1.6481241	0.43836919	0.19320618	1.6284493	0.43347146	0.028558314	1.6533676	0.42110359	0.058230774	1.5746924	0.82630534	-0.15086219	1.5360661	0.78497478	0.18851782	1.6380911	0.86705731	-0.095807751	1.614183	0.85146209	0.15012988	1.435914	0.93084624	0.020406398	1.560663	1.3373154	-0.17033732	1.5542094	1.3397976	0.19452151	1.4741316	1.3719637	0.0081706866	1.5026068	1.0236417	-0.22175262	1.4875705	1.0216	0.25296517	1.6385897	0.82026296	-0.25701564	1.6684113	0.85222425	0.25694807
478	1.908	1.7183519	0.03460188	-0.060449558	1.4145945	0.087162651	0.12155579	1.591831	0.067789013	-0.080455198	1.3617399	0.21143572	0.14724258	1.5892954	0.080240842	0.0069489663	1.398075	0.21399454	0.066941179	1.5174957	0.039997789	-0.036317805	1.3173637	0.24437545	0.082857136	1.6595317	0.43845682	-0.088908215	1.6585812	0.44149876	0.19305399	1.6288644	0.43350896	0.028895911	1.664328	0.42487297	0.05791945	1.5795385	0.82693602	-0.15099478	1.5412983	0.78704738	0.18901247	1.6431395	0.86800932	-0.096170739	1.6197249	0.85324106	0.14970924	1.4408738	0.93205408	0.020331274	1.5665975	1.3387628	-0.17039344	1.5592648	1.3410756	0.19433401	1.4796608	1.3731292	0.0078679112	1.5104857	1.0246198	-0.22249086	1.4914466	1.0233538	0.25219564	1.648795	0.82255141	-0.25608797	1.669575	0.852019	0.25778809
479	1.912	1.7183471	0.03458928	-0.060444354	1.4323197	0.086367198	0.12200529	1.5918215	0.067840767	-0.080376735	1.3759682	0.2091753	0.14652319	1.589539	0.080337965	0.0069963328	1.4126837	0.21209621	0.066344113	1.5175052	0.040073742	-0.036209763	1.3310362	0.24059582	0.081734149	1.6605415	0.43827364	-0.088696945	1.6689237	0.44457728	0.19291129	1.6290826	0.43361112	0.029237235	1.6747555	0.42867309	0.057582353	1.5843991	0.82752854	-0.15109921	1.5465817	0.78909468	0.1895249	1.648182	0.86893121	-0.096527284	1.6252774	0.85499713	0.14927346	1.4458696	0.93318577	0.020280924	1.5725097	1.340157	-0.17043012	1.5643367	1.3422935	0.19415928	1.4851692	1.3742351	0.0075877319	1.5183511	1.0255727	-0.22320305	1.4954806	1.0251297	0.251471	1.6586828	0.82488743	-0.25515242	1.6707379	0.85183813	0.25864181
480	1.916	1.718337	0.034580306	-0.060437792	1.4502459	0.085559408	0.12252509	1.5918046	0.067895705	-0.080293086	1.3902325	0.20675804	0.14584253	1.5898192	0.080419623	0.0070205955	1.4273552	0.21004842	0.065776925	1.5175123	0.040162437	-0.036096654	1.3447937	0.23659266	0.080674624	1.6615018	0.43808081	-0.088497384	1.6791604	0.4476067	0.19277242	1.6294252	0.43370674	0.029516664	1.685059	0.43243691	0.057243327	1.5892608	0.82808115	-0.15117771	1.5519394	0.79110999	0.19004775	1.6532187	0.86981969	-0.096876304	1.6308993	0.85672724	0.14883655	1.4509213	0.93424435	0.020184296	1.5784036	1.3414973	-0.17045135	1.5694376	1.343441	0.1939974	1.4906635	1.3752812	0.0073039133	1.526245	1.0264856	-0.22393737	1.4991005	1.0268954	0.25074951	1.6686277	0.82722702	-0.25417315	1.6718957	0.85166952	0.25952069
481	1.92	1.7183222	0.034574236	-0.060431472	1.4685766	0.084774954	0.1231392	1.5917805	0.067957965	-0.080214286	1.4045552	0.204192	0.14520537	1.5899697	0.080473286	0.0070516833	1.4420912	0.20786732	0.065230348	1.5175234	0.04026688	-0.035988128	1.358656	0.23237736	0.079685231	1.6624141	0.43788	-0.088314823	1.6892812	0.45058775	0.19261886	1.6300364	0.43374257	0.029765566	1.6953707	0.43611175	0.056952335	1.5940994	0.82860077	-0.15124484	1.5573956	0.79308727	0.19057368	1.6582544	0.87067147	-0.097219535	1.6365861	0.85842945	0.14839644	1.4560935	0.93524692	0.019929706	1.5842895	1.3427856	-0.1704656	1.5745792	1.3445071	0.19384557	1.4961469	1.3762651	0.0069967413	1.5341935	1.0273498	-0.22471571	1.502071	1.028589	0.25000049	1.6788103	0.8295458	-0.25313577	1.6730388	0.85150906	0.26044954
482	1.924	1.718306	0.034569326	-0.060428394	1.4873016	0.084010967	0.12384424	1.5917513	0.068027605	-0.080146928	1.4189717	0.20148157	0.14462243	1.5900403	0.080519175	0.0070986265	1.456897	0.20557489	0.064685067	1.5175429	0.040385772	-0.035886378	1.3726499	0.2279664	0.078766658	1.663273	0.43767637	-0.088158795	1.6992644	0.453519	0.19243455	1.6307827	0.43371479	0.030092609	1.7055784	0.43967208	0.056768673	1.5988614	0.82909098	-0.15131636	1.5629791	0.79502144	0.19109494	1.6632934	0.87148178	-0.09755654	1.6422855	0.86010027	0.14793986	1.4614742	0.93619418	0.019455112	1.5901734	1.3440225	-0.17048407	1.5797603	1.3454861	0.1936975	1.501617	1.377186	0.0066732496	1.5421817	1.0281642	-0.22552433	1.5045974	1.0301588	0.24922182	1.689169	0.83184518	-0.25204772	1.6741408	0.85135427	0.26149057
483	1.928	1.7182936	0.034564309	-0.060430767	1.5060786	0.083207603	0.1245963	1.5917194	0.068102013	-0.08009107	1.4335015	0.1986253	0.14410373	1.5901069	0.080572236	0.0071644395	1.4717836	0.20318907	0.06412238	1.5175705	0.040512527	-0.035788973	1.3868035	0.22337501	0.077917973	1.6640908	0.43747491	-0.088029845	1.7090927	0.45639616	0.1922136	1.63153	0.43365653	0.030511786	1.7155585	0.44310798	0.056727406	1.6034445	0.82953923	-0.15140325	1.5687246	0.79690747	0.19160317	1.6683335	0.8722433	-0.09788576	1.6479648	0.86173305	0.14745933	1.4670333	0.93708141	0.018858199	1.5960554	1.345203	-0.17051395	1.5849732	1.3463793	0.19354995	1.5070736	1.3780445	0.0063530376	1.550176	1.028928	-0.22633693	1.5070681	1.0316016	0.2484303	1.69958	0.8341324	-0.25092329	1.6751834	0.85120135	0.26270413
